<svg xmlns="http://www.w3.org/2000/svg" width="128" height="128" id="bin"><path fill="#3B97D3" d="M94.2 40 90 108.1c-.1 2.1-1.9 3.9-4 3.9H42c-2.1 0-3.9-1.8-4-3.9L33.8 40h-4l4.2 68.4c.3 4.2 3.8 7.6 8 7.6h44c4.2 0 7.7-3.4 8-7.6L98.2 40h-4zM102 22H26c-2.2 0-4 1.8-4 4v8c0 2.2 1.8 4 4 4h76c2.2 0 4-1.8 4-4v-8c0-2.2-1.8-4-4-4zm0 12H26v-8h76v8z"></path><path fill="#2C3E50" d="M65 103.7c-.6 0-1-.4-1-1V45c0-.6.4-1 1-1s1 .4 1 1v57.7c0 .5-.4 1-1 1zM79.8 103.7c-.6 0-1-.5-1-1L81 45c0-.6.5-1 1-1 .6 0 1 .5 1 1l-2.2 57.7c0 .5-.4 1-1 1zM49.7 103.7c-.5 0-1-.4-1-1L46.2 45c0-.6.4-1 1-1 .5 0 1 .4 1 1l2.5 57.7c0 .5-.4.9-1 1z"></path><path fill="#3B97D3" d="M53 20v-2c0-1.1.9-2 2-2h20c1.1 0 2 .9 2 2v2h4v-2c0-3.3-2.7-6-6-6H55c-3.3 0-6 2.7-6 6v2h4z"></path></svg>